<svg width="48" height="48" viewBox="0 0 48 48" fill="none" xmlns="http://www.w3.org/2000/svg">
<g clip-path="url(#clip0_1_783)">
<path d="M13.215 30.7423C14.2732 30.1555 15.4516 29.8183 16.66 29.7563C18.2892 29.7265 19.8938 30.1563 21.29 30.9963C22.0928 31.5243 23.0397 31.7899 24 31.7563C24.957 31.7885 25.9003 31.523 26.7 30.9963C27.2956 30.6556 27.9217 30.3711 28.57 30.1463C29.6116 29.8771 30.6842 29.746 31.76 29.7563H32C31.1711 25.8328 29.1734 22.2523 26.27 19.4863L26.254 19.4733C25.2303 18.4754 24.4154 17.2837 23.8568 15.9678C23.2981 14.6519 23.0068 13.2379 23 11.8083C22.9931 10.3787 23.2707 8.96202 23.8166 7.64076C24.3626 6.3195 25.166 5.12006 26.18 4.11231C26.63 3.67508 26.9067 3.08987 26.9591 2.46464C27.0115 1.8394 26.836 1.21632 26.465 0.710311C26.2465 0.432564 25.9717 0.204284 25.6586 0.0405239C25.3454 -0.123236 25.0011 -0.218754 24.6484 -0.239731C24.2957 -0.260709 23.9425 -0.206669 23.6121 -0.0811756C23.2818 0.0443178 22.9818 0.238413 22.732 0.488311C21.2424 1.96243 20.0601 3.71736 19.2533 5.65152C18.4465 7.58568 18.0314 9.66064 18.032 11.7563C18.0615 14.9919 19.0989 18.1379 21 20.7563L20.91 20.8563L13.036 30.5043C13.014 30.5308 13.0015 30.564 13.0007 30.5984C12.9998 30.6329 13.0106 30.6666 13.0313 30.6941C13.0521 30.7217 13.0815 30.7414 13.1148 30.7502C13.1481 30.7589 13.1834 30.7561 13.215 30.7423ZM46 41.7563C44.3737 41.7246 42.7718 42.1545 41.38 42.9963C40.5616 43.4934 39.6225 43.7562 38.665 43.7562C37.7075 43.7562 36.7684 43.4934 35.95 42.9963C34.5582 42.1545 32.9563 41.7246 31.33 41.7563C30.2298 41.7347 29.136 41.9284 28.11 42.3263C27.6221 42.5098 27.1504 42.7339 26.7 42.9963C26.44 43.1363 26.21 43.2663 25.97 43.3763H25.96C25.3454 43.6547 24.6741 43.7848 24 43.7563C23.0397 43.7899 22.0928 43.5243 21.29 42.9963C19.8938 42.1563 18.2892 41.7265 16.66 41.7563C15.0337 41.7246 13.4318 42.1545 12.04 42.9963C11.236 43.5215 10.2899 43.7869 9.33 43.7563C8.37012 43.7868 7.42406 43.5215 6.62 42.9963C5.22819 42.1545 3.62626 41.7246 2 41.7563C1.46957 41.7563 0.960859 41.967 0.585786 42.3421C0.210714 42.7172 0 43.2259 0 43.7563C0 44.2867 0.210714 44.7955 0.585786 45.1705C0.960859 45.5456 1.46957 45.7563 2 45.7563C2.95988 45.7258 3.90594 45.9911 4.71 46.5163C6.10181 47.3581 7.70374 47.788 9.33 47.7563C10.9563 47.788 12.5582 47.3581 13.95 46.5163C14.7541 45.9911 15.7001 45.7258 16.66 45.7563C17.6201 45.7243 18.5666 45.9897 19.37 46.5163C20.7656 47.3578 22.3706 47.7877 24 47.7563C25.6261 47.7865 27.2276 47.3566 28.62 46.5163C29.4366 46.0193 30.3741 45.7564 31.33 45.7564C32.2859 45.7564 33.2234 46.0193 34.04 46.5163C35.446 47.3287 37.0412 47.7564 38.665 47.7564C40.2888 47.7564 41.884 47.3287 43.29 46.5163C44.0934 45.9897 45.0399 45.7243 46 45.7563C46.5304 45.7563 47.0391 45.5456 47.4142 45.1705C47.7893 44.7955 48 44.2867 48 43.7563C48 43.2259 47.7893 42.7172 47.4142 42.3421C47.0391 41.967 46.5304 41.7563 46 41.7563ZM2 37.7563C2.95839 37.7257 3.90314 37.9896 4.707 38.5123C6.09847 39.357 7.70152 39.7885 9.329 39.7563C10.9571 39.7884 12.5608 39.357 13.953 38.5123C14.7572 37.9894 15.7023 37.7256 16.661 37.7563C17.6204 37.7254 18.5662 37.9893 19.371 38.5123C20.763 39.3567 22.3662 39.7881 23.994 39.7563C25.6222 39.7884 27.226 39.3566 28.618 38.5113C29.4353 38.017 30.3723 37.7557 31.3275 37.7557C32.2827 37.7557 33.2197 38.017 34.037 38.5113C35.4423 39.3263 37.038 39.7555 38.6625 39.7555C40.287 39.7555 41.8827 39.3263 43.288 38.5113C44.0937 37.9886 45.0401 37.7251 46 37.7563C46.5304 37.7563 47.0391 37.5456 47.4142 37.1705C47.7893 36.7955 48 36.2867 48 35.7563C48 35.2259 47.7893 34.7172 47.4142 34.3421C47.0391 33.967 46.5304 33.7563 46 33.7563C44.3716 33.7241 42.7676 34.1556 41.375 35.0003C40.557 35.4948 39.6194 35.7562 38.6635 35.7562C37.7076 35.7562 36.77 35.4948 35.952 35.0003C34.5592 34.1554 32.9548 33.7239 31.326 33.7563C29.6982 33.724 28.0948 34.1555 26.703 35.0003C25.8988 35.5232 24.9537 35.787 23.995 35.7563C23.036 35.787 22.0906 35.5232 21.286 35.0003C19.8934 34.1556 18.2894 33.7241 16.661 33.7563C15.0329 33.7242 13.4292 34.1556 12.037 35.0003C11.2331 35.523 10.2884 35.7868 9.33 35.7563C8.37194 35.7868 7.42755 35.5229 6.624 35.0003C5.23202 34.1551 3.62818 33.7236 2 33.7563C1.46957 33.7563 0.960859 33.967 0.585786 34.3421C0.210714 34.7172 0 35.2259 0 35.7563C0 36.2867 0.210714 36.7955 0.585786 37.1705C0.960859 37.5456 1.46957 37.7563 2 37.7563Z" fill="black"/>
<path d="M35 24C37.7614 24 40 21.7614 40 19C40 16.2386 37.7614 14 35 14C32.2386 14 30 16.2386 30 19C30 21.7614 32.2386 24 35 24Z" fill="black"/>
</g>
<defs>
<clipPath id="clip0_1_783">
<rect width="48" height="48" fill="white"/>
</clipPath>
</defs>
</svg>
