<svg width="48" height="48" viewBox="0 0 48 48" fill="none" xmlns="http://www.w3.org/2000/svg">
<g clip-path="url(#clip0_1_723)">
<path d="M38.98 9.01C37.8998 9.00622 36.8284 9.20288 35.82 9.59L35.81 9.595C35.338 6.76206 33.8221 4.20862 31.5611 2.43772C29.3001 0.666819 26.4578 -0.193119 23.5943 0.0273253C20.7308 0.247769 18.0536 1.53261 16.0903 3.62872C14.127 5.72482 13.0198 8.4802 12.987 11.352C11.999 10.9954 10.9344 10.9054 9.90054 11.0912C8.86668 11.2771 7.90005 11.732 7.09803 12.4104C6.296 13.0887 5.6869 13.9664 5.33209 14.9551C4.97728 15.9438 4.88929 17.0085 5.07698 18.042L5.06998 18.04C4.87465 18.0114 4.67739 17.998 4.47998 18C3.28651 18 2.14191 18.4741 1.298 19.318C0.454086 20.1619 -0.0200195 21.3065 -0.0200195 22.5C-0.0200195 23.6935 0.454086 24.8381 1.298 25.682C2.14191 26.5259 3.28651 27 4.47998 27H38.98C41.0619 27.0003 43.0797 26.279 44.6896 24.959C46.2996 23.6389 47.4023 21.8016 47.81 19.76C47.9224 19.1801 47.9794 18.5907 47.98 18C47.9797 16.8186 47.7467 15.6489 47.2942 14.5577C46.8417 13.4664 46.1786 12.475 45.3428 11.6402C44.5069 10.8053 43.5148 10.1433 42.4231 9.69198C41.3313 9.24069 40.1613 9.00895 38.98 9.01ZM28.48 37H22.187L25.752 31.295C25.8564 31.128 25.9269 30.942 25.9594 30.7477C25.9919 30.5534 25.9859 30.3546 25.9416 30.1627C25.8973 29.9708 25.8156 29.7894 25.7012 29.6291C25.5869 29.4687 25.442 29.3324 25.275 29.228C25.1079 29.1236 24.922 29.0531 24.7277 29.0206C24.5334 28.9881 24.3346 28.9941 24.1427 29.0384C23.9508 29.0827 23.7694 29.1644 23.609 29.2787C23.4487 29.3931 23.3124 29.538 23.208 29.705L18.208 37.705C18.0661 37.9321 17.9875 38.193 17.9805 38.4606C17.9735 38.7283 18.0382 38.993 18.168 39.2271C18.2978 39.4613 18.4879 39.6565 18.7186 39.7924C18.9493 39.9283 19.2122 40 19.48 40H25.773L22.208 45.705C22.1036 45.872 22.0331 46.058 22.0006 46.2523C21.968 46.4466 21.9741 46.6453 22.0184 46.8373C22.0627 47.0292 22.1444 47.2106 22.2587 47.3709C22.3731 47.5313 22.5179 47.6676 22.685 47.772C22.852 47.8764 23.038 47.9469 23.2323 47.9794C23.4265 48.0119 23.6253 48.0059 23.8173 47.9616C24.0092 47.9173 24.1905 47.8356 24.3509 47.7213C24.5113 47.6069 24.6476 47.462 24.752 47.295L29.752 39.295C29.8939 39.0679 29.9724 38.807 29.9795 38.5394C29.9865 38.2717 29.9217 38.007 29.7919 37.7728C29.6621 37.5387 29.472 37.3435 29.2413 37.2076C29.0106 37.0717 28.7477 37 28.48 37Z" fill="black"/>
</g>
<defs>
<clipPath id="clip0_1_723">
<rect width="47.98" height="48" fill="white"/>
</clipPath>
</defs>
</svg>
